<svg width="24" height="24" viewBox="0 0 24 24" fill="none" xmlns="http://www.w3.org/2000/svg">
<path d="M20.25 12.222C20.25 11.6345 20.1973 11.0696 20.0994 10.5273H12.2965V13.7321H16.7553C16.5632 14.7677 15.9795 15.6451 15.1021 16.2326V18.3114H17.7796C19.3462 16.869 20.25 14.7451 20.25 12.222Z" fill="#4285F4"/>
<path d="M12.2965 20.3201C14.5334 20.3201 16.4088 19.5782 17.7796 18.3129L15.102 16.2342C14.3602 16.7313 13.4112 17.025 12.2965 17.025C10.1387 17.025 8.31221 15.5676 7.66072 13.6094H4.89282V15.7559C6.25606 18.4636 9.05785 20.3201 12.2965 20.3201Z" fill="#34A853"/>
<path d="M7.64911 13.5948C7.48341 13.0977 7.38927 12.5667 7.38927 12.0207C7.38927 11.4746 7.48341 10.9436 7.64911 10.4465V8.3H4.88121C4.30127 9.45451 3.99949 10.7287 4 12.0207C4 13.3575 4.3201 14.6229 4.88121 15.7413L7.64911 13.5948Z" fill="#FBBC05"/>
<path d="M12.2965 7.04512C13.5129 7.04512 14.605 7.46313 15.4636 8.28408L17.8398 5.90783C16.4051 4.57096 14.5297 3.75 12.2965 3.75C9.05788 3.75 6.25609 5.60656 4.89285 8.31421L7.66075 10.4607C8.31224 8.5025 10.1387 7.04512 12.2965 7.04512Z" fill="#EA4335"/>
</svg>
